<mxfile host="app.diagrams.net" modified="2024-01-19T12:45:38.487Z" agent="Mozilla/5.0 (Windows NT 10.0; Win64; x64) AppleWebKit/537.36 (KHTML, like Gecko) Chrome/120.0.0.0 Safari/537.36" etag="jdjYqdXQQWts8NVCnxii" version="22.1.16" type="github">
  <diagram id="C5RBs43oDa-KdzZeNtuy" name="Page-1">
    <mxGraphModel dx="1050" dy="569" grid="1" gridSize="10" guides="1" tooltips="1" connect="1" arrows="1" fold="1" page="1" pageScale="1" pageWidth="827" pageHeight="1169" math="0" shadow="0">
      <root>
        <mxCell id="WIyWlLk6GJQsqaUBKTNV-0" />
        <mxCell id="WIyWlLk6GJQsqaUBKTNV-1" parent="WIyWlLk6GJQsqaUBKTNV-0" />
        <mxCell id="-ej6FYuQ9sUZtW5j7Nzi-3" value="" style="edgeStyle=orthogonalEdgeStyle;rounded=0;orthogonalLoop=1;jettySize=auto;html=1;" edge="1" parent="WIyWlLk6GJQsqaUBKTNV-1" source="-ej6FYuQ9sUZtW5j7Nzi-1" target="-ej6FYuQ9sUZtW5j7Nzi-2">
          <mxGeometry relative="1" as="geometry" />
        </mxCell>
        <mxCell id="-ej6FYuQ9sUZtW5j7Nzi-1" value="Start" style="strokeWidth=2;html=1;shape=mxgraph.flowchart.start_1;whiteSpace=wrap;" vertex="1" parent="WIyWlLk6GJQsqaUBKTNV-1">
          <mxGeometry x="409" y="140" width="100" height="60" as="geometry" />
        </mxCell>
        <mxCell id="-ej6FYuQ9sUZtW5j7Nzi-5" value="" style="edgeStyle=orthogonalEdgeStyle;rounded=0;orthogonalLoop=1;jettySize=auto;html=1;" edge="1" parent="WIyWlLk6GJQsqaUBKTNV-1" source="-ej6FYuQ9sUZtW5j7Nzi-2" target="-ej6FYuQ9sUZtW5j7Nzi-4">
          <mxGeometry relative="1" as="geometry" />
        </mxCell>
        <mxCell id="-ej6FYuQ9sUZtW5j7Nzi-2" value="Display Logo of Blackjack" style="whiteSpace=wrap;html=1;strokeWidth=2;" vertex="1" parent="WIyWlLk6GJQsqaUBKTNV-1">
          <mxGeometry x="400" y="230" width="120" height="60" as="geometry" />
        </mxCell>
        <mxCell id="-ej6FYuQ9sUZtW5j7Nzi-7" value="" style="edgeStyle=orthogonalEdgeStyle;rounded=0;orthogonalLoop=1;jettySize=auto;html=1;" edge="1" parent="WIyWlLk6GJQsqaUBKTNV-1" source="-ej6FYuQ9sUZtW5j7Nzi-4" target="-ej6FYuQ9sUZtW5j7Nzi-6">
          <mxGeometry relative="1" as="geometry" />
        </mxCell>
        <mxCell id="-ej6FYuQ9sUZtW5j7Nzi-4" value="Deal&amp;nbsp; card to player and dealer" style="whiteSpace=wrap;html=1;strokeWidth=2;" vertex="1" parent="WIyWlLk6GJQsqaUBKTNV-1">
          <mxGeometry x="399" y="320" width="120" height="60" as="geometry" />
        </mxCell>
        <mxCell id="-ej6FYuQ9sUZtW5j7Nzi-9" value="" style="edgeStyle=orthogonalEdgeStyle;rounded=0;orthogonalLoop=1;jettySize=auto;html=1;" edge="1" parent="WIyWlLk6GJQsqaUBKTNV-1" source="-ej6FYuQ9sUZtW5j7Nzi-6" target="-ej6FYuQ9sUZtW5j7Nzi-8">
          <mxGeometry relative="1" as="geometry" />
        </mxCell>
        <mxCell id="-ej6FYuQ9sUZtW5j7Nzi-6" value="Show player their cards to one of the dealers card" style="whiteSpace=wrap;html=1;strokeWidth=2;" vertex="1" parent="WIyWlLk6GJQsqaUBKTNV-1">
          <mxGeometry x="399" y="410" width="120" height="60" as="geometry" />
        </mxCell>
        <mxCell id="-ej6FYuQ9sUZtW5j7Nzi-23" value="" style="edgeStyle=orthogonalEdgeStyle;rounded=0;orthogonalLoop=1;jettySize=auto;html=1;" edge="1" parent="WIyWlLk6GJQsqaUBKTNV-1" source="-ej6FYuQ9sUZtW5j7Nzi-8" target="-ej6FYuQ9sUZtW5j7Nzi-22">
          <mxGeometry relative="1" as="geometry" />
        </mxCell>
        <mxCell id="-ej6FYuQ9sUZtW5j7Nzi-42" style="edgeStyle=orthogonalEdgeStyle;rounded=0;orthogonalLoop=1;jettySize=auto;html=1;entryX=0.5;entryY=0;entryDx=0;entryDy=0;" edge="1" parent="WIyWlLk6GJQsqaUBKTNV-1" source="-ej6FYuQ9sUZtW5j7Nzi-8" target="-ej6FYuQ9sUZtW5j7Nzi-15">
          <mxGeometry relative="1" as="geometry" />
        </mxCell>
        <mxCell id="-ej6FYuQ9sUZtW5j7Nzi-8" value="hit&amp;nbsp; or stand" style="rhombus;whiteSpace=wrap;html=1;strokeWidth=2;" vertex="1" parent="WIyWlLk6GJQsqaUBKTNV-1">
          <mxGeometry x="419" y="540" width="80" height="80" as="geometry" />
        </mxCell>
        <mxCell id="-ej6FYuQ9sUZtW5j7Nzi-19" value="" style="edgeStyle=orthogonalEdgeStyle;rounded=0;orthogonalLoop=1;jettySize=auto;html=1;" edge="1" parent="WIyWlLk6GJQsqaUBKTNV-1" source="-ej6FYuQ9sUZtW5j7Nzi-15" target="-ej6FYuQ9sUZtW5j7Nzi-18">
          <mxGeometry relative="1" as="geometry" />
        </mxCell>
        <mxCell id="-ej6FYuQ9sUZtW5j7Nzi-28" value="" style="edgeStyle=orthogonalEdgeStyle;rounded=0;orthogonalLoop=1;jettySize=auto;html=1;entryX=0.5;entryY=0;entryDx=0;entryDy=0;" edge="1" parent="WIyWlLk6GJQsqaUBKTNV-1" source="-ej6FYuQ9sUZtW5j7Nzi-15" target="-ej6FYuQ9sUZtW5j7Nzi-27">
          <mxGeometry relative="1" as="geometry" />
        </mxCell>
        <mxCell id="-ej6FYuQ9sUZtW5j7Nzi-15" value="player &amp;gt; dealer" style="rhombus;whiteSpace=wrap;html=1;strokeWidth=2;" vertex="1" parent="WIyWlLk6GJQsqaUBKTNV-1">
          <mxGeometry x="414" y="730" width="90" height="100" as="geometry" />
        </mxCell>
        <mxCell id="-ej6FYuQ9sUZtW5j7Nzi-18" value="Bust" style="whiteSpace=wrap;html=1;strokeWidth=2;" vertex="1" parent="WIyWlLk6GJQsqaUBKTNV-1">
          <mxGeometry x="194" y="750" width="120" height="60" as="geometry" />
        </mxCell>
        <mxCell id="-ej6FYuQ9sUZtW5j7Nzi-25" value="" style="edgeStyle=orthogonalEdgeStyle;rounded=0;orthogonalLoop=1;jettySize=auto;html=1;" edge="1" parent="WIyWlLk6GJQsqaUBKTNV-1" source="-ej6FYuQ9sUZtW5j7Nzi-22" target="-ej6FYuQ9sUZtW5j7Nzi-24">
          <mxGeometry relative="1" as="geometry" />
        </mxCell>
        <mxCell id="-ej6FYuQ9sUZtW5j7Nzi-22" value="Add a card" style="whiteSpace=wrap;html=1;strokeWidth=2;" vertex="1" parent="WIyWlLk6GJQsqaUBKTNV-1">
          <mxGeometry x="194" y="550" width="120" height="60" as="geometry" />
        </mxCell>
        <mxCell id="-ej6FYuQ9sUZtW5j7Nzi-26" style="edgeStyle=orthogonalEdgeStyle;rounded=0;orthogonalLoop=1;jettySize=auto;html=1;entryX=0;entryY=0.5;entryDx=0;entryDy=0;exitX=0.5;exitY=1;exitDx=0;exitDy=0;" edge="1" parent="WIyWlLk6GJQsqaUBKTNV-1" source="-ej6FYuQ9sUZtW5j7Nzi-24" target="-ej6FYuQ9sUZtW5j7Nzi-18">
          <mxGeometry relative="1" as="geometry">
            <mxPoint x="370" y="750" as="targetPoint" />
          </mxGeometry>
        </mxCell>
        <mxCell id="-ej6FYuQ9sUZtW5j7Nzi-32" style="edgeStyle=orthogonalEdgeStyle;rounded=0;orthogonalLoop=1;jettySize=auto;html=1;entryX=0;entryY=0.5;entryDx=0;entryDy=0;exitX=0.5;exitY=0;exitDx=0;exitDy=0;" edge="1" parent="WIyWlLk6GJQsqaUBKTNV-1" source="-ej6FYuQ9sUZtW5j7Nzi-24" target="-ej6FYuQ9sUZtW5j7Nzi-6">
          <mxGeometry relative="1" as="geometry">
            <mxPoint x="60" y="490" as="sourcePoint" />
          </mxGeometry>
        </mxCell>
        <mxCell id="-ej6FYuQ9sUZtW5j7Nzi-24" value="player &amp;gt; 21" style="rhombus;whiteSpace=wrap;html=1;strokeWidth=2;" vertex="1" parent="WIyWlLk6GJQsqaUBKTNV-1">
          <mxGeometry x="14" y="540" width="80" height="80" as="geometry" />
        </mxCell>
        <mxCell id="-ej6FYuQ9sUZtW5j7Nzi-31" style="edgeStyle=orthogonalEdgeStyle;rounded=0;orthogonalLoop=1;jettySize=auto;html=1;entryX=1;entryY=0.5;entryDx=0;entryDy=0;exitX=0;exitY=0.5;exitDx=0;exitDy=0;" edge="1" parent="WIyWlLk6GJQsqaUBKTNV-1" source="-ej6FYuQ9sUZtW5j7Nzi-27" target="-ej6FYuQ9sUZtW5j7Nzi-29">
          <mxGeometry relative="1" as="geometry" />
        </mxCell>
        <mxCell id="-ej6FYuQ9sUZtW5j7Nzi-39" style="edgeStyle=orthogonalEdgeStyle;rounded=0;orthogonalLoop=1;jettySize=auto;html=1;entryX=0.5;entryY=0;entryDx=0;entryDy=0;exitX=0.5;exitY=1;exitDx=0;exitDy=0;" edge="1" parent="WIyWlLk6GJQsqaUBKTNV-1" source="-ej6FYuQ9sUZtW5j7Nzi-27" target="-ej6FYuQ9sUZtW5j7Nzi-36">
          <mxGeometry relative="1" as="geometry" />
        </mxCell>
        <mxCell id="-ej6FYuQ9sUZtW5j7Nzi-27" value="dealer &amp;lt; 15" style="rhombus;whiteSpace=wrap;html=1;strokeWidth=2;" vertex="1" parent="WIyWlLk6GJQsqaUBKTNV-1">
          <mxGeometry x="650" y="870" width="90" height="100" as="geometry" />
        </mxCell>
        <mxCell id="-ej6FYuQ9sUZtW5j7Nzi-47" style="edgeStyle=orthogonalEdgeStyle;rounded=0;orthogonalLoop=1;jettySize=auto;html=1;entryX=0.5;entryY=1;entryDx=0;entryDy=0;" edge="1" parent="WIyWlLk6GJQsqaUBKTNV-1" source="-ej6FYuQ9sUZtW5j7Nzi-29" target="-ej6FYuQ9sUZtW5j7Nzi-15">
          <mxGeometry relative="1" as="geometry" />
        </mxCell>
        <mxCell id="-ej6FYuQ9sUZtW5j7Nzi-29" value="add dealer 1 card" style="whiteSpace=wrap;html=1;strokeWidth=2;" vertex="1" parent="WIyWlLk6GJQsqaUBKTNV-1">
          <mxGeometry x="399" y="890" width="120" height="60" as="geometry" />
        </mxCell>
        <mxCell id="-ej6FYuQ9sUZtW5j7Nzi-36" value="Win" style="whiteSpace=wrap;html=1;strokeWidth=2;" vertex="1" parent="WIyWlLk6GJQsqaUBKTNV-1">
          <mxGeometry x="635" y="1090" width="120" height="60" as="geometry" />
        </mxCell>
      </root>
    </mxGraphModel>
  </diagram>
</mxfile>
